{
    "asset" : {
        "generator" : "Khronos glTF Blender I/O v1.0.5",
        "version" : "2.0"
    },
    "scene" : 0,
    "scenes" : [
        {
            "name" : "Scene",
            "nodes" : [
                0,
                1,
                2,
                3,
                4,
                5
            ]
        }
    ],
    "nodes" : [
        {
            "name" : "Camera",
            "rotation" : [
                0.5377551317214966,
                0.32239824533462524,
                -0.20298144221305847,
                0.7521152496337891
            ],
            "translation" : [
                18.408857345581055,
                10.511285781860352,
                17.359416961669922
            ]
        },
        {
            "mesh" : 0,
            "name" : "Plane"
        },
        {
            "mesh" : 1,
            "name" : "Cylinder",
            "scale" : [
                0.40876004099845886,
                0.40876004099845886,
                0.40876004099845886
            ],
            "translation" : [
                -5.084741592407227,
                0.03758546710014343,
                1.6919611692428589
            ]
        },
        {
            "mesh" : 2,
            "name" : "Cylinder.001",
            "scale" : [
                0.3693788945674896,
                0.3693788945674896,
                0.3693788945674896
            ],
            "translation" : [
                4.816362380981445,
                0.0696142166852951,
                -0.8361517190933228
            ]
        },
        {
            "mesh" : 3,
            "name" : "Cylinder.002",
            "scale" : [
                0.6062520742416382,
                0.6062520742416382,
                0.6062520742416382
            ],
            "translation" : [
                4.558671474456787,
                0.07915908843278885,
                -3.5398342609405518
            ]
        },
        {
            "name" : "Sun",
            "rotation" : [
                -0.27230972051620483,
                -0.6071335673332214,
                -0.2504858672618866,
                0.7032020688056946
            ],
            "translation" : [
                18.143325805664062,
                14.29448127746582,
                -2.929880142211914
            ]
        }
    ],
    "materials" : [
        {
            "doubleSided" : true,
            "name" : "Ground",
            "pbrMetallicRoughness" : {
                "baseColorFactor" : [
                    0.058609165251255035,
                    0.3757496178150177,
                    0.04320943355560303,
                    1
                ],
                "metallicFactor" : 0,
                "roughnessFactor" : 0.5
            }
        },
        {
            "doubleSided" : true,
            "name" : "Brown",
            "pbrMetallicRoughness" : {
                "baseColorFactor" : [
                    0.05776374042034149,
                    0.014622670598328114,
                    0.005342699121683836,
                    1
                ],
                "metallicFactor" : 0,
                "roughnessFactor" : 0.5
            }
        },
        {
            "doubleSided" : true,
            "name" : "Snow",
            "pbrMetallicRoughness" : {
                "baseColorFactor" : [
                    1,
                    1,
                    1,
                    1
                ],
                "metallicFactor" : 0,
                "roughnessFactor" : 0.5
            }
        },
        {
            "doubleSided" : true,
            "name" : "Trunk",
            "pbrMetallicRoughness" : {
                "baseColorFactor" : [
                    0.044416457414627075,
                    0.011808556504547596,
                    0.0036923319566994905,
                    1
                ],
                "metallicFactor" : 0,
                "roughnessFactor" : 0.5
            }
        },
        {
            "doubleSided" : true,
            "name" : "Leaves",
            "pbrMetallicRoughness" : {
                "baseColorFactor" : [
                    0.03049784153699875,
                    0.13286082446575165,
                    0.009356985799968243,
                    1
                ],
                "metallicFactor" : 0,
                "roughnessFactor" : 0.5
            }
        },
        {
            "doubleSided" : true,
            "name" : "Trunk.001",
            "pbrMetallicRoughness" : {
                "baseColorFactor" : [
                    0.044416457414627075,
                    0.011808556504547596,
                    0.0036923319566994905,
                    1
                ],
                "metallicFactor" : 0,
                "roughnessFactor" : 0.5
            }
        },
        {
            "doubleSided" : true,
            "name" : "Leaves.001",
            "pbrMetallicRoughness" : {
                "baseColorFactor" : [
                    0.03049784153699875,
                    0.13286082446575165,
                    0.009356985799968243,
                    1
                ],
                "metallicFactor" : 0,
                "roughnessFactor" : 0.5
            }
        },
        {
            "doubleSided" : true,
            "name" : "Trunk.002",
            "pbrMetallicRoughness" : {
                "baseColorFactor" : [
                    0.044416457414627075,
                    0.011808556504547596,
                    0.0036923319566994905,
                    1
                ],
                "metallicFactor" : 0,
                "roughnessFactor" : 0.5
            }
        },
        {
            "doubleSided" : true,
            "name" : "Leaves.002",
            "pbrMetallicRoughness" : {
                "baseColorFactor" : [
                    0.03049784153699875,
                    0.13286082446575165,
                    0.009356985799968243,
                    1
                ],
                "metallicFactor" : 0,
                "roughnessFactor" : 0.5
            }
        }
    ],
    "meshes" : [
        {
            "name" : "Plane",
            "primitives" : [
                {
                    "attributes" : {
                        "POSITION" : 0,
                        "NORMAL" : 1,
                        "TEXCOORD_0" : 2
                    },
                    "indices" : 3,
                    "material" : 0
                },
                {
                    "attributes" : {
                        "POSITION" : 4,
                        "NORMAL" : 5,
                        "TEXCOORD_0" : 6
                    },
                    "indices" : 7,
                    "material" : 1
                },
                {
                    "attributes" : {
                        "POSITION" : 8,
                        "NORMAL" : 9,
                        "TEXCOORD_0" : 10
                    },
                    "indices" : 11,
                    "material" : 2
                }
            ]
        },
        {
            "name" : "Cylinder.001",
            "primitives" : [
                {
                    "attributes" : {
                        "POSITION" : 12,
                        "NORMAL" : 13,
                        "TEXCOORD_0" : 14
                    },
                    "indices" : 15,
                    "material" : 3
                },
                {
                    "attributes" : {
                        "POSITION" : 16,
                        "NORMAL" : 17,
                        "TEXCOORD_0" : 18
                    },
                    "indices" : 19,
                    "material" : 4
                }
            ]
        },
        {
            "name" : "Cylinder.002",
            "primitives" : [
                {
                    "attributes" : {
                        "POSITION" : 20,
                        "NORMAL" : 21,
                        "TEXCOORD_0" : 22
                    },
                    "indices" : 15,
                    "material" : 5
                },
                {
                    "attributes" : {
                        "POSITION" : 23,
                        "NORMAL" : 24,
                        "TEXCOORD_0" : 25
                    },
                    "indices" : 19,
                    "material" : 6
                }
            ]
        },
        {
            "name" : "Cylinder.003",
            "primitives" : [
                {
                    "attributes" : {
                        "POSITION" : 26,
                        "NORMAL" : 27,
                        "TEXCOORD_0" : 28
                    },
                    "indices" : 15,
                    "material" : 7
                },
                {
                    "attributes" : {
                        "POSITION" : 29,
                        "NORMAL" : 30,
                        "TEXCOORD_0" : 31
                    },
                    "indices" : 19,
                    "material" : 8
                }
            ]
        }
    ],
    "accessors" : [
        {
            "bufferView" : 0,
            "componentType" : 5126,
            "count" : 1221,
            "max" : [
                7.996334075927734,
                0.702605664730072,
                7.996334075927734
            ],
            "min" : [
                -7.996334075927734,
                0,
                -7.996334075927734
            ],
            "type" : "VEC3"
        },
        {
            "bufferView" : 1,
            "componentType" : 5126,
            "count" : 1221,
            "type" : "VEC3"
        },
        {
            "bufferView" : 2,
            "componentType" : 5126,
            "count" : 1221,
            "type" : "VEC2"
        },
        {
            "bufferView" : 3,
            "componentType" : 5123,
            "count" : 1227,
            "type" : "SCALAR"
        },
        {
            "bufferView" : 4,
            "componentType" : 5126,
            "count" : 252,
            "max" : [
                3.998167037963867,
                4.235333442687988,
                -0.9995417594909668
            ],
            "min" : [
                -5.997250556945801,
                0,
                -7.996334075927734
            ],
            "type" : "VEC3"
        },
        {
            "bufferView" : 5,
            "componentType" : 5126,
            "count" : 252,
            "type" : "VEC3"
        },
        {
            "bufferView" : 6,
            "componentType" : 5126,
            "count" : 252,
            "type" : "VEC2"
        },
        {
            "bufferView" : 7,
            "componentType" : 5123,
            "count" : 252,
            "type" : "SCALAR"
        },
        {
            "bufferView" : 8,
            "componentType" : 5126,
            "count" : 57,
            "max" : [
                0.9995417594909668,
                5.205325603485107,
                -1.9990835189819336
            ],
            "min" : [
                -3.998167037963867,
                2.3836281299591064,
                -5.997250556945801
            ],
            "type" : "VEC3"
        },
        {
            "bufferView" : 9,
            "componentType" : 5126,
            "count" : 57,
            "type" : "VEC3"
        },
        {
            "bufferView" : 10,
            "componentType" : 5126,
            "count" : 57,
            "type" : "VEC2"
        },
        {
            "bufferView" : 11,
            "componentType" : 5123,
            "count" : 57,
            "type" : "SCALAR"
        },
        {
            "bufferView" : 12,
            "componentType" : 5126,
            "count" : 36,
            "max" : [
                0.24359673261642456,
                1.3532135486602783,
                0.28128159046173096
            ],
            "min" : [
                -0.2435969114303589,
                -0.2812814712524414,
                -0.2812812328338623
            ],
            "type" : "VEC3"
        },
        {
            "bufferView" : 13,
            "componentType" : 5126,
            "count" : 36,
            "type" : "VEC3"
        },
        {
            "bufferView" : 14,
            "componentType" : 5126,
            "count" : 36,
            "type" : "VEC2"
        },
        {
            "bufferView" : 15,
            "componentType" : 5123,
            "count" : 60,
            "type" : "SCALAR"
        },
        {
            "bufferView" : 16,
            "componentType" : 5126,
            "count" : 72,
            "max" : [
                0.9085606336593628,
                3.194356918334961,
                0.9986876249313354
            ],
            "min" : [
                -1.1637511253356934,
                1.072901725769043,
                -0.9574888348579407
            ],
            "type" : "VEC3"
        },
        {
            "bufferView" : 17,
            "componentType" : 5126,
            "count" : 72,
            "type" : "VEC3"
        },
        {
            "bufferView" : 18,
            "componentType" : 5126,
            "count" : 72,
            "type" : "VEC2"
        },
        {
            "bufferView" : 19,
            "componentType" : 5123,
            "count" : 72,
            "type" : "SCALAR"
        },
        {
            "bufferView" : 20,
            "componentType" : 5126,
            "count" : 36,
            "max" : [
                0.24359673261642456,
                1.3532135486602783,
                0.28128159046173096
            ],
            "min" : [
                -0.2435969114303589,
                -0.2812814712524414,
                -0.2812812328338623
            ],
            "type" : "VEC3"
        },
        {
            "bufferView" : 21,
            "componentType" : 5126,
            "count" : 36,
            "type" : "VEC3"
        },
        {
            "bufferView" : 22,
            "componentType" : 5126,
            "count" : 36,
            "type" : "VEC2"
        },
        {
            "bufferView" : 23,
            "componentType" : 5126,
            "count" : 72,
            "max" : [
                0.9085606336593628,
                3.194356918334961,
                0.9986876249313354
            ],
            "min" : [
                -1.1637511253356934,
                1.072901725769043,
                -0.9574888348579407
            ],
            "type" : "VEC3"
        },
        {
            "bufferView" : 24,
            "componentType" : 5126,
            "count" : 72,
            "type" : "VEC3"
        },
        {
            "bufferView" : 25,
            "componentType" : 5126,
            "count" : 72,
            "type" : "VEC2"
        },
        {
            "bufferView" : 26,
            "componentType" : 5126,
            "count" : 36,
            "max" : [
                0.24359673261642456,
                1.3532135486602783,
                0.28128159046173096
            ],
            "min" : [
                -0.2435969114303589,
                -0.2812814712524414,
                -0.2812812328338623
            ],
            "type" : "VEC3"
        },
        {
            "bufferView" : 27,
            "componentType" : 5126,
            "count" : 36,
            "type" : "VEC3"
        },
        {
            "bufferView" : 28,
            "componentType" : 5126,
            "count" : 36,
            "type" : "VEC2"
        },
        {
            "bufferView" : 29,
            "componentType" : 5126,
            "count" : 72,
            "max" : [
                0.9085606336593628,
                3.194356918334961,
                0.9986876249313354
            ],
            "min" : [
                -1.1637511253356934,
                1.072901725769043,
                -0.9574888348579407
            ],
            "type" : "VEC3"
        },
        {
            "bufferView" : 30,
            "componentType" : 5126,
            "count" : 72,
            "type" : "VEC3"
        },
        {
            "bufferView" : 31,
            "componentType" : 5126,
            "count" : 72,
            "type" : "VEC2"
        }
    ],
    "bufferViews" : [
        {
            "buffer" : 0,
            "byteLength" : 14652,
            "byteOffset" : 0
        },
        {
            "buffer" : 0,
            "byteLength" : 14652,
            "byteOffset" : 14652
        },
        {
            "buffer" : 0,
            "byteLength" : 9768,
            "byteOffset" : 29304
        },
        {
            "buffer" : 0,
            "byteLength" : 2454,
            "byteOffset" : 39072
        },
        {
            "buffer" : 0,
            "byteLength" : 3024,
            "byteOffset" : 41528
        },
        {
            "buffer" : 0,
            "byteLength" : 3024,
            "byteOffset" : 44552
        },
        {
            "buffer" : 0,
            "byteLength" : 2016,
            "byteOffset" : 47576
        },
        {
            "buffer" : 0,
            "byteLength" : 504,
            "byteOffset" : 49592
        },
        {
            "buffer" : 0,
            "byteLength" : 684,
            "byteOffset" : 50096
        },
        {
            "buffer" : 0,
            "byteLength" : 684,
            "byteOffset" : 50780
        },
        {
            "buffer" : 0,
            "byteLength" : 456,
            "byteOffset" : 51464
        },
        {
            "buffer" : 0,
            "byteLength" : 114,
            "byteOffset" : 51920
        },
        {
            "buffer" : 0,
            "byteLength" : 432,
            "byteOffset" : 52036
        },
        {
            "buffer" : 0,
            "byteLength" : 432,
            "byteOffset" : 52468
        },
        {
            "buffer" : 0,
            "byteLength" : 288,
            "byteOffset" : 52900
        },
        {
            "buffer" : 0,
            "byteLength" : 120,
            "byteOffset" : 53188
        },
        {
            "buffer" : 0,
            "byteLength" : 864,
            "byteOffset" : 53308
        },
        {
            "buffer" : 0,
            "byteLength" : 864,
            "byteOffset" : 54172
        },
        {
            "buffer" : 0,
            "byteLength" : 576,
            "byteOffset" : 55036
        },
        {
            "buffer" : 0,
            "byteLength" : 144,
            "byteOffset" : 55612
        },
        {
            "buffer" : 0,
            "byteLength" : 432,
            "byteOffset" : 55756
        },
        {
            "buffer" : 0,
            "byteLength" : 432,
            "byteOffset" : 56188
        },
        {
            "buffer" : 0,
            "byteLength" : 288,
            "byteOffset" : 56620
        },
        {
            "buffer" : 0,
            "byteLength" : 864,
            "byteOffset" : 56908
        },
        {
            "buffer" : 0,
            "byteLength" : 864,
            "byteOffset" : 57772
        },
        {
            "buffer" : 0,
            "byteLength" : 576,
            "byteOffset" : 58636
        },
        {
            "buffer" : 0,
            "byteLength" : 432,
            "byteOffset" : 59212
        },
        {
            "buffer" : 0,
            "byteLength" : 432,
            "byteOffset" : 59644
        },
        {
            "buffer" : 0,
            "byteLength" : 288,
            "byteOffset" : 60076
        },
        {
            "buffer" : 0,
            "byteLength" : 864,
            "byteOffset" : 60364
        },
        {
            "buffer" : 0,
            "byteLength" : 864,
            "byteOffset" : 61228
        },
        {
            "buffer" : 0,
            "byteLength" : 576,
            "byteOffset" : 62092
        }
    ],
    "buffers" : [
        {
            "byteLength" : 62668,
            "uri" : "data:application/octet-stream;base64,"
        }
    ]
}
