{
    "asset" : {
        "generator" : "Khronos glTF Blender I/O v1.0.5",
        "version" : "2.0"
    },
    "scene" : 0,
    "scenes" : [
        {
            "name" : "Scene",
            "nodes" : [
                0,
                1,
                2
            ]
        }
    ],
    "nodes" : [
        {
            "name" : "Light",
            "rotation" : [
                0.16907575726509094,
                0.7558803558349609,
                -0.27217137813568115,
                0.570947527885437
            ],
            "translation" : [
                1.031489610671997,
                5.903861999511719,
                -1.0054539442062378
            ]
        },
        {
            "name" : "Camera",
            "rotation" : [
                0.483536034822464,
                0.33687159419059753,
                -0.20870360732078552,
                0.7804827094078064
            ],
            "translation" : [
                4.314135551452637,
                4.958309173583984,
                6.925790786743164
            ]
        },
        {
            "mesh" : 0,
            "name" : "Plane",
            "rotation" : [
                0.7193397879600525,
                0,
                0,
                0.6946583986282349
            ],
            "scale" : [
                2.9117543697357178,
                0.775087296962738,
                0.18675191700458527
            ],
            "translation" : [
                -0.00910043716430664,
                -0.000885610468685627,
                0.014816283248364925
            ]
        }
    ],
    "meshes" : [
        {
            "name" : "Plane",
            "primitives" : [
                {
                    "attributes" : {
                        "POSITION" : 0,
                        "NORMAL" : 1,
                        "TEXCOORD_0" : 2
                    },
                    "indices" : 3
                }
            ]
        }
    ],
    "accessors" : [
        {
            "bufferView" : 0,
            "componentType" : 5126,
            "count" : 96,
            "max" : [
                1.1229593753814697,
                0.2549498379230499,
                30.217693328857422
            ],
            "min" : [
                -2.235950469970703,
                -0.2548954486846924,
                -30.211219787597656
            ],
            "type" : "VEC3"
        },
        {
            "bufferView" : 1,
            "componentType" : 5126,
            "count" : 96,
            "type" : "VEC3"
        },
        {
            "bufferView" : 2,
            "componentType" : 5126,
            "count" : 96,
            "type" : "VEC2"
        },
        {
            "bufferView" : 3,
            "componentType" : 5123,
            "count" : 144,
            "type" : "SCALAR"
        }
    ],
    "bufferViews" : [
        {
            "buffer" : 0,
            "byteLength" : 1152,
            "byteOffset" : 0
        },
        {
            "buffer" : 0,
            "byteLength" : 1152,
            "byteOffset" : 1152
        },
        {
            "buffer" : 0,
            "byteLength" : 768,
            "byteOffset" : 2304
        },
        {
            "buffer" : 0,
            "byteLength" : 288,
            "byteOffset" : 3072
        }
    ],
    "buffers" : [
        {
            "byteLength" : 3360,
            "uri" : "data:application/octet-stream;base64,"
        }
    ]
}
